<svg width="200" height="200" viewBox="0 0 200 200" fill="none" xmlns="http://www.w3.org/2000/svg">
  <!-- Confetti pieces -->
  <rect x="20" y="30" width="8" height="16" rx="2" fill="#4CAF50" transform="rotate(15 20 30)"/>
  <rect x="50" y="20" width="6" height="12" rx="1" fill="#FF9800" transform="rotate(-20 50 20)"/>
  <rect x="90" y="15" width="8" height="16" rx="2" fill="#2196F3" transform="rotate(30 90 15)"/>
  <rect x="130" y="25" width="6" height="12" rx="1" fill="#E91E63" transform="rotate(-15 130 25)"/>
  <rect x="170" y="35" width="8" height="16" rx="2" fill="#9C27B0" transform="rotate(25 170 35)"/>

  <circle cx="35" cy="60" r="5" fill="#FFEB3B"/>
  <circle cx="75" cy="45" r="4" fill="#4CAF50"/>
  <circle cx="115" cy="55" r="5" fill="#FF5722"/>
  <circle cx="155" cy="50" r="4" fill="#00BCD4"/>

  <rect x="25" y="80" width="6" height="12" rx="1" fill="#673AB7" transform="rotate(-30 25 80)"/>
  <rect x="65" y="70" width="8" height="16" rx="2" fill="#8BC34A" transform="rotate(20 65 70)"/>
  <rect x="105" y="75" width="6" height="12" rx="1" fill="#FFC107" transform="rotate(-25 105 75)"/>
  <rect x="145" y="85" width="8" height="16" rx="2" fill="#03A9F4" transform="rotate(35 145 85)"/>
  <rect x="180" y="75" width="6" height="12" rx="1" fill="#F44336" transform="rotate(-10 180 75)"/>

  <circle cx="45" cy="100" r="4" fill="#9E9E9E"/>
  <circle cx="85" cy="95" r="5" fill="#CDDC39"/>
  <circle cx="125" cy="105" r="4" fill="#FF4081"/>
  <circle cx="165" cy="100" r="5" fill="#00E676"/>
</svg>
